# xmcd
#
# Track frame offsets: 
#        150
#        16180
#        36877
#        69749
#        84952
#        96736
#        109997
#        124796
#        136806
#        147863
#        160003
#        171986
#        188979
#        203071
#        217506
#        237391
#        249653
#        261636
#        279103
#        290487
#
# Disc length: 4023 seconds
#
# Revision: 0
# Processed by: cddbd v1.5.1PL0 Copyright (c) Steve Scherf et al.
# Submitted via: ExactAudioCopy v0.95b2
#
DISCID=270fb514
DTITLE=The Lovelites - The Lovelite Years with guest artist Niecy
DYEAR=1999
DGENRE=Soul
TTITLE0=Betcha By Golly Wow
TTITLE1=Go to Be There
TTITLE2=You've Lost That Lovin' Feelin'
TTITLE3=How Can I Tell My Mom and Dad
TTITLE4=My Baby Loves Me
TTITLE5=Is That Lovin' In Your Heart
TTITLE6=I'm the ONe That You Need
TTITLE7=My Conscience
TTITLE8=Bumpy Road Ahead
TTITLE9=The Way That You Treat Me Baby
TTITLE10=Man In My Life
TTITLE11=Get it Off My Conscience
TTITLE12=Oh What a Day
TTITLE13=Love So Strong
TTITLE14=Cravin' For Your Love
TTITLE15=Come and Get It
TTITLE16=You've Hurt Me Now
TTITLE17=Love is Pretty
TTITLE18=Love is Tears
TTITLE19=I'm Not Like the Others
EXTD=
EXTT0=
EXTT1=
EXTT2=
EXTT3=
EXTT4=
EXTT5=
EXTT6=
EXTT7=
EXTT8=
EXTT9=
EXTT10=
EXTT11=
EXTT12=
EXTT13=
EXTT14=
EXTT15=
EXTT16=
EXTT17=
EXTT18=
EXTT19=
PLAYORDER=
